<svg width="51" height="45" viewBox="0 0 51 45" fill="none" xmlns="http://www.w3.org/2000/svg">
<path d="M47.8541 9.32364L41.1361 9.32274L5.07482 9.32004C3.3545 9.32004 1.95455 7.89054 1.95455 6.13344C1.95455 4.37624 3.3545 2.94674 5.07572 2.94674L45.5837 2.94944V0.955336L5.07572 0.952637C2.27851 0.952637 0.0026926 3.27604 0.00179519 6.13254L0 41.8151C0 43.3927 1.25637 44.676 2.8017 44.676L47.8532 44.6796C49.3985 44.6796 50.6549 43.3963 50.6549 41.8196L50.6567 21.024L50.6576 12.1837C50.6558 10.6069 49.3994 9.32364 47.8541 9.32364ZM48.7013 41.8196C48.7013 42.297 48.3199 42.6865 47.8523 42.6865L2.8008 42.6829C2.33325 42.6829 1.95186 42.2934 1.95186 41.816L1.95365 10.2085C2.58363 10.7128 3.33117 11.0673 4.1478 11.2225V11.3132H5.07393L41.1352 11.3159L47.8532 11.3168C48.3217 11.3168 48.7022 11.7062 48.7022 12.1837L48.7013 21.024V41.8196Z" fill="#AAAAAA"/>
</svg>
